<!-- Generated by IcoMoon.io -->
<svg version="1.1" xmlns="http://www.w3.org/2000/svg" width="30" height="28" viewBox="0 0 30 28">
<path d="M6 18.25v1.5c0 0.141-0.109 0.25-0.25 0.25h-1.5c-0.141 0-0.25-0.109-0.25-0.25v-1.5c0-0.141 0.109-0.25 0.25-0.25h1.5c0.141 0 0.25 0.109 0.25 0.25zM8 14.25v1.5c0 0.141-0.109 0.25-0.25 0.25h-3.5c-0.141 0-0.25-0.109-0.25-0.25v-1.5c0-0.141 0.109-0.25 0.25-0.25h3.5c0.141 0 0.25 0.109 0.25 0.25zM6 10.25v1.5c0 0.141-0.109 0.25-0.25 0.25h-1.5c-0.141 0-0.25-0.109-0.25-0.25v-1.5c0-0.141 0.109-0.25 0.25-0.25h1.5c0.141 0 0.25 0.109 0.25 0.25zM22 18.25v1.5c0 0.141-0.109 0.25-0.25 0.25h-13.5c-0.141 0-0.25-0.109-0.25-0.25v-1.5c0-0.141 0.109-0.25 0.25-0.25h13.5c0.141 0 0.25 0.109 0.25 0.25zM12 14.25v1.5c0 0.141-0.109 0.25-0.25 0.25h-1.5c-0.141 0-0.25-0.109-0.25-0.25v-1.5c0-0.141 0.109-0.25 0.25-0.25h1.5c0.141 0 0.25 0.109 0.25 0.25zM10 10.25v1.5c0 0.141-0.109 0.25-0.25 0.25h-1.5c-0.141 0-0.25-0.109-0.25-0.25v-1.5c0-0.141 0.109-0.25 0.25-0.25h1.5c0.141 0 0.25 0.109 0.25 0.25zM16 14.25v1.5c0 0.141-0.109 0.25-0.25 0.25h-1.5c-0.141 0-0.25-0.109-0.25-0.25v-1.5c0-0.141 0.109-0.25 0.25-0.25h1.5c0.141 0 0.25 0.109 0.25 0.25zM14 10.25v1.5c0 0.141-0.109 0.25-0.25 0.25h-1.5c-0.141 0-0.25-0.109-0.25-0.25v-1.5c0-0.141 0.109-0.25 0.25-0.25h1.5c0.141 0 0.25 0.109 0.25 0.25zM20 14.25v1.5c0 0.141-0.109 0.25-0.25 0.25h-1.5c-0.141 0-0.25-0.109-0.25-0.25v-1.5c0-0.141 0.109-0.25 0.25-0.25h1.5c0.141 0 0.25 0.109 0.25 0.25zM26 18.25v1.5c0 0.141-0.109 0.25-0.25 0.25h-1.5c-0.141 0-0.25-0.109-0.25-0.25v-1.5c0-0.141 0.109-0.25 0.25-0.25h1.5c0.141 0 0.25 0.109 0.25 0.25zM18 10.25v1.5c0 0.141-0.109 0.25-0.25 0.25h-1.5c-0.141 0-0.25-0.109-0.25-0.25v-1.5c0-0.141 0.109-0.25 0.25-0.25h1.5c0.141 0 0.25 0.109 0.25 0.25zM22 10.25v1.5c0 0.141-0.109 0.25-0.25 0.25h-1.5c-0.141 0-0.25-0.109-0.25-0.25v-1.5c0-0.141 0.109-0.25 0.25-0.25h1.5c0.141 0 0.25 0.109 0.25 0.25zM26 10.25v5.5c0 0.141-0.109 0.25-0.25 0.25h-3.5c-0.141 0-0.25-0.109-0.25-0.25v-1.5c0-0.141 0.109-0.25 0.25-0.25h1.75v-3.75c0-0.141 0.109-0.25 0.25-0.25h1.5c0.141 0 0.25 0.109 0.25 0.25zM28 22v-14h-26v14h26zM30 8v14c0 1.109-0.891 2-2 2h-26c-1.109 0-2-0.891-2-2v-14c0-1.109 0.891-2 2-2h26c1.109 0 2 0.891 2 2z"></path>
</svg>
