<svg width="83.451cm" height="83.451cm" version="1.1" viewBox="0 0 500.70319 500.70319" xmlns="http://www.w3.org/2000/svg">
<g transform="translate(3.5163e-6 603.7)" stroke="#000">
<g transform="translate(-59.531 -5.9531)" fill="currentColor">
<path d="m-239.22-223.23h112.16s24.876-256.03 0-380.35c-3.4038-17.01-11.42-32.973-20.026-48.036-9.926-17.374-36-48.036-36-48.036s-26.057 30.672-36 48.036c-8.6278 15.067-16.715 31.015-20.138 48.036-25 124.29 0 380.35 0 380.35z" stroke-width="14.482"/>
<rect transform="rotate(90)" x="-226.24" y="130.22" width="171.19" height="105.88" rx="18.56" stroke-width="14.482"/>
<rect x="-264.97" y="-246.8" width="163.62" height="56.448" rx="17.739" stroke-width="14.482"/>
</g>
<path d="m869.16 37.891v-17.859" fill="none" stroke-width=".15875px"/>
<g fill="currentColor">
<g transform="rotate(45 29.359 168.19)">
<path d="m-239.22-223.23h112.16s24.876-256.03 0-380.35c-3.4038-17.01-11.42-32.973-20.026-48.036-9.926-17.374-36-48.036-36-48.036s-26.057 30.672-36 48.036c-8.6278 15.067-16.715 31.015-20.138 48.036-25 124.29 0 380.35 0 380.35z" stroke-width="14.482"/>
<rect transform="rotate(90)" x="-226.24" y="130.22" width="171.19" height="105.88" rx="18.56" stroke-width="14.482"/>
<rect x="-264.97" y="-246.8" width="163.62" height="56.448" rx="17.739" stroke-width="14.482"/>
</g>
<g transform="rotate(-45 37.771 -878.27)">
<path d="m-239.22-223.23h112.16s24.876-256.03 0-380.35c-3.4038-17.01-11.42-32.973-20.026-48.036-9.926-17.374-36-48.036-36-48.036s-26.057 30.672-36 48.036c-8.6278 15.067-16.715 31.015-20.138 48.036-25 124.29 0 380.35 0 380.35z" stroke-width="14.482"/>
<rect transform="rotate(90)" x="-226.24" y="130.22" width="171.19" height="105.88" rx="18.56" stroke-width="14.482"/>
<rect x="-264.97" y="-246.8" width="163.62" height="56.448" rx="17.739" stroke-width="14.482"/>
</g>
<path d="m-518.33-274.56h112.16s24.876-256.03 0-380.35c-3.4038-17.01-11.42-32.973-20.026-48.036-9.926-17.374-36-48.036-36-48.036s-26.057 30.672-36 48.036c-8.6278 15.067-16.715 31.015-20.138 48.036-25 124.29 0 380.35 0 380.35z" stroke-width="14.482"/>
<rect transform="rotate(90)" x="-277.58" y="409.34" width="171.19" height="105.88" rx="18.56" stroke-width="14.482"/>
<rect x="-544.09" y="-298.13" width="163.62" height="56.448" rx="17.739" stroke-width="14.482"/>
</g>
</g>
</svg>
