<?xml version="1.0" encoding="iso-8859-1"?>
<!-- Uploaded to: SVG Repo, www.svgrepo.com, Generator: SVG Repo Mixer Tools -->
<svg version="1.1" id="Layer_1" xmlns="http://www.w3.org/2000/svg" xmlns:xlink="http://www.w3.org/1999/xlink" 
	 viewBox="0 0 285.938 285.938" xml:space="preserve">
<g>
	<g>
		<path style="fill:currentColor;" d="M271.875,145.321h-28.791l-8.053-52.359c5.189,3.445,11.409,5.456,18.094,5.456
			c18.094,0,32.813-14.728,32.813-32.817s-14.719-32.813-32.813-32.813s-32.813,14.719-32.813,32.813
			c0,3.802,0.684,7.439,1.88,10.838l-17.934-15.356c-3.647-3.122-8.292-4.823-13.088-4.823h-64.608
			c-7.753,0-14.063,6.309-14.063,14.063s6.309,14.063,14.063,14.063h58.036l-48.783,38.311
			c-8.859,6.961-13.941,17.409-13.941,28.678c0,12.469,6.263,23.934,16.758,30.684l43.5,27.961l-36.67,15.281
			c-3.684,1.533-6.581,4.561-7.95,8.302c-1.369,3.75-1.111,7.936,0.717,11.489c2.531,4.912,7.547,7.772,12.764,7.772
			c1.936,0,3.9-0.394,5.77-1.223l50.55-22.313c7.894-3.675,12.998-11.686,12.998-20.405c0-5.934-2.405-11.738-6.6-15.923
			l-28.73-28.734l27.084-23.705l2.091,16.72c1.148,9.211,9.009,16.167,18.286,16.167h39.431c7.753,0,14.063-6.309,14.063-14.063
			C285.938,151.63,279.629,145.321,271.875,145.321z M253.125,42.158c12.923,0,23.438,10.514,23.438,23.438
			s-10.514,23.438-23.438,23.438c-12.923,0-23.438-10.514-23.438-23.438S240.202,42.158,253.125,42.158z M271.875,164.071h-39.431
			c-4.556,0-8.419-3.427-8.986-7.95l-4.28-34.228l-47.916,41.916l35.822,35.822c2.452,2.442,3.853,5.827,3.853,9.295
			c0,5.086-2.981,9.764-7.5,11.873l-50.466,22.27c-2.4,1.073-5.213,0.07-6.413-2.259c-0.642-1.252-0.727-2.658-0.248-3.98
			c0.483-1.312,1.458-2.334,2.752-2.873l39.839-16.598c2.611-1.083,4.388-3.506,4.636-6.323s-1.073-5.517-3.45-7.041L143.7,174.172
			c-7.795-5.02-12.45-13.542-12.45-22.809c0-8.372,3.778-16.144,10.359-21.319l57.628-45.258l-9.797-9.778h-62.878
			c-2.583,0-4.688-2.1-4.688-4.688c0-2.588,2.105-4.688,4.688-4.688h64.608c2.559,0,5.039,0.9,6.984,2.564l27.164,23.297
			l9.722,63.202h36.834c2.583,0,4.688,2.1,4.688,4.688S274.458,164.071,271.875,164.071z"/>
		<path style="fill:currentColor;" d="M68.991,241.4c-2.353,2.677-6.314,3.136-9.206,1.073c-1.584-1.13-2.597-2.817-2.845-4.744
			c-0.248-1.931,0.3-3.811,1.547-5.306l62.306-74.766l-7.2-6.005l-62.311,74.77c-2.892,3.469-4.219,8.03-3.642,12.511
			s3.019,8.555,6.698,11.18c2.869,2.044,6.173,3.037,9.459,3.037c4.538,0,9.033-1.903,12.244-5.569l54.047-61.706l-7.055-6.178
			L68.991,241.4z"/>
		<rect x="37.5" y="93.758" style="fill:currentColor;" width="103.125" height="9.375"/>
		<rect x="9.375" y="93.758" style="fill:currentColor;" width="18.75" height="9.375"/>
		<rect x="46.875" y="112.508" style="fill:currentColor;" width="70.313" height="9.375"/>
		<rect x="18.75" y="112.508" style="fill:currentColor;" width="18.75" height="9.375"/>
		<rect x="51.563" y="131.258" style="fill:currentColor;" width="60.938" height="9.375"/>
		<rect x="28.125" y="131.258" style="fill:currentColor;" width="14.063" height="9.375"/>
		<rect x="28.125" y="75.008" style="fill:currentColor;" width="79.688" height="9.375"/>
		<rect y="75.008" style="fill:currentColor;" width="18.75" height="9.375"/>
		<rect x="9.375" y="84.383" style="fill:currentColor;" width="98.438" height="9.375"/>
		<rect x="18.75" y="103.133" style="fill:currentColor;" width="121.875" height="9.375"/>
		<rect x="28.125" y="121.883" style="fill:currentColor;" width="89.063" height="9.375"/>
		<rect x="37.5" y="140.633" style="fill:currentColor;" width="75" height="9.375"/>
	</g>
</g>
</svg>