<!-- Generated by IcoMoon.io -->
<svg version="1.1" xmlns="http://www.w3.org/2000/svg" width="32" height="32" viewBox="0 0 32 32">
<path fill="currentColor" d="M29.013 0.059v-0.050h-9.746c-0.172-0.022-0.347-0.016-0.509 0.052-0.296 0.079-0.542 0.275-0.662 0.552l-17.817 17.816c-0.389 0.39-0.389 1.021 0 1.41l11.872 11.872c0.39 0.389 1.021 0.389 1.41 0l17.765-17.766c0.396-0.133 0.687-0.496 0.687-0.937v-9.5c0-1.761-1.306-3.204-3-3.449zM26.013 8.009c-1.104 0-2-0.896-2-2s0.896-2 2-2 2 0.896 2 2-0.896 2-2 2z"></path>
</svg>
